<svg width="48" height="24" viewBox="0 0 48 24" fill="none" xmlns="http://www.w3.org/2000/svg">
<path d="M10.6309 5.63248L11.9509 8.27248C12.1309 8.63998 12.6109 8.99248 13.0159 9.05998L15.4084 9.45748C16.9384 9.71248 17.2984 10.8225 16.1959 11.9175L14.3359 13.7775C14.0209 14.0925 13.8484 14.7 13.9459 15.135L14.4784 17.4375C14.8984 19.26 13.9309 19.965 12.3184 19.0125L10.0759 17.685C9.67093 17.445 9.00343 17.445 8.59093 17.685L6.34843 19.0125C4.74343 19.965 3.76843 19.2525 4.18843 17.4375L4.72093 15.135C4.81843 14.7 4.64593 14.0925 4.33093 13.7775L2.47093 11.9175C1.37593 10.8225 1.72843 9.71248 3.25843 9.45748L5.65093 9.05998C6.04843 8.99248 6.52843 8.63998 6.70843 8.27248L8.02843 5.63248C8.74843 4.19998 9.91843 4.19998 10.6309 5.63248Z" fill="#FFCD1A"/>
<path d="M28.5573 17V14.968H23.0533V13.256L28.2693 5.8H30.7173V13.096H32.1733V14.968H30.7173V17H28.5573ZM25.3573 13.096H28.7013V8.184L25.3573 13.096ZM34.7715 17.08C34.3662 17.08 34.0408 16.9627 33.7955 16.728C33.5502 16.4827 33.4275 16.184 33.4275 15.832C33.4275 15.48 33.5502 15.1867 33.7955 14.952C34.0408 14.7067 34.3662 14.584 34.7715 14.584C35.1555 14.584 35.4702 14.7067 35.7155 14.952C35.9608 15.1867 36.0835 15.48 36.0835 15.832C36.0835 16.184 35.9608 16.4827 35.7155 16.728C35.4702 16.9627 35.1555 17.08 34.7715 17.08ZM41.5984 17.192C40.7557 17.192 40.041 17.0373 39.4544 16.728C38.8784 16.4187 38.4144 16.0027 38.0624 15.48C37.721 14.9573 37.4704 14.376 37.3104 13.736C37.161 13.0853 37.0864 12.4293 37.0864 11.768C37.0864 10.5093 37.2624 9.42133 37.6144 8.504C37.9664 7.58667 38.473 6.87733 39.1344 6.376C39.7957 5.864 40.5957 5.608 41.5344 5.608C42.3237 5.608 42.9904 5.76267 43.5344 6.072C44.0784 6.37067 44.4997 6.76533 44.7984 7.256C45.097 7.74667 45.273 8.27467 45.3264 8.84H43.3104C43.225 8.37067 43.0277 8.01333 42.7184 7.768C42.409 7.512 42.009 7.384 41.5184 7.384C41.0597 7.384 40.6597 7.52267 40.3184 7.8C39.977 8.07733 39.7104 8.49333 39.5184 9.048C39.337 9.60267 39.2304 10.3013 39.1984 11.144C39.1984 11.1547 39.1984 11.1707 39.1984 11.192C39.1984 11.2133 39.1984 11.2293 39.1984 11.24C39.369 10.952 39.593 10.696 39.8704 10.472C40.1477 10.248 40.4677 10.072 40.8304 9.944C41.193 9.816 41.577 9.752 41.9824 9.752C42.601 9.752 43.177 9.90133 43.7104 10.2C44.2437 10.4987 44.6757 10.92 45.0064 11.464C45.337 12.008 45.5024 12.6533 45.5024 13.4C45.5024 14.072 45.337 14.7013 45.0064 15.288C44.6864 15.864 44.233 16.328 43.6464 16.68C43.0597 17.0213 42.377 17.192 41.5984 17.192ZM41.4704 15.336C41.8544 15.336 42.1904 15.256 42.4784 15.096C42.777 14.936 43.0117 14.7173 43.1824 14.44C43.353 14.152 43.4384 13.8267 43.4384 13.464C43.4384 13.08 43.353 12.7493 43.1824 12.472C43.0117 12.1947 42.777 11.976 42.4784 11.816C42.1797 11.656 41.8384 11.576 41.4544 11.576C41.081 11.576 40.745 11.656 40.4464 11.816C40.1477 11.976 39.9077 12.2 39.7264 12.488C39.5557 12.7653 39.4704 13.0853 39.4704 13.448C39.4704 13.8213 39.5557 14.152 39.7264 14.44C39.9077 14.7173 40.1477 14.936 40.4464 15.096C40.7557 15.256 41.097 15.336 41.4704 15.336Z" fill="white"/>
</svg>
